<?xml version="1.0" standalone="no"?>
<!DOCTYPE svg PUBLIC "-//W3C//DTD SVG 20010904//EN"
 "http://www.w3.org/TR/2001/REC-SVG-20010904/DTD/svg10.dtd">
<svg version="1.0" xmlns="http://www.w3.org/2000/svg"
 width="1131.000000pt" height="1131.000000pt" viewBox="0 0 1131.000000 1131.000000"
 preserveAspectRatio="xMidYMid meet">

<g transform="translate(0.000000,1131.000000) scale(0.100000,-0.100000)"
fill="#222" stroke="none">
<path d="M3847 10696 c-85 -31 -87 -38 -193 -446 -14 -52 -38 -140 -54 -195
-16 -55 -61 -230 -100 -390 -107 -441 -107 -440 -176 -574 -115 -220 -230
-571 -278 -846 -37 -208 -47 -305 -58 -577 l-12 -287 -87 -122 c-166 -232
-367 -587 -458 -809 -176 -424 -278 -866 -322 -1385 -18 -216 -7 -680 20 -880
57 -416 167 -778 341 -1125 78 -157 124 -233 221 -372 38 -55 67 -103 64 -109
-4 -5 -143 -9 -339 -9 -267 0 -336 3 -345 13 -8 10 -12 208 -13 678 l-3 664
-399 3 c-313 2 -401 -1 -408 -10 -4 -7 -8 -756 -8 -1664 0 -1384 2 -1653 14
-1663 9 -8 126 -10 412 -9 l399 3 3 660 c1 362 6 663 10 667 5 5 395 8 868 8
l859 0 120 -29 c368 -92 842 -90 1150 5 l80 24 2050 -2 2050 -3 5 -665 c3
-366 6 -666 8 -668 1 -1 185 -1 410 0 l407 3 0 1670 0 1670 -402 3 c-222 1
-404 1 -405 0 -2 -2 -5 -307 -8 -678 l-5 -675 -344 -3 c-193 -1 -349 2 -354 7
-5 5 14 22 46 40 80 46 204 157 263 235 100 132 153 270 161 418 21 374 -235
672 -577 672 -140 0 -232 -36 -328 -128 -116 -111 -165 -221 -181 -408 -5 -64
-16 -126 -23 -138 -20 -34 -146 -113 -243 -153 -185 -78 -431 -140 -532 -135
-74 4 -74 7 12 162 175 319 282 614 385 1074 6 23 14 61 20 85 5 23 20 101 32
172 20 117 22 164 23 480 0 316 -2 364 -23 495 -65 416 -139 678 -308 1091
l-65 160 94 102 c159 174 264 314 326 435 12 23 28 42 36 42 19 0 275 -87 378
-129 101 -40 122 -40 136 0 18 52 -11 69 -241 143 -112 36 -209 66 -215 66
-27 0 -34 28 -20 77 l15 48 66 -2 c93 -3 297 -38 461 -78 152 -37 175 -35 175
13 0 37 -17 57 -60 71 -51 16 -367 67 -498 82 -65 7 -116 17 -118 23 -2 6 -1
36 3 66 l8 55 45 7 c25 3 150 2 278 -4 180 -8 236 -7 247 2 22 18 18 64 -6 86
-19 17 -43 19 -283 24 l-261 5 -6 190 c-9 239 -40 427 -105 625 -53 159 -189
404 -321 575 -32 42 -73 97 -92 123 l-34 47 7 150 c3 83 10 229 15 325 6 96
15 292 22 435 12 298 9 325 -46 374 -30 26 -44 31 -87 31 -63 0 -109 -24 -345
-181 -92 -61 -260 -170 -373 -242 -113 -72 -220 -143 -239 -160 -33 -28 -37
-29 -105 -23 -39 3 -120 13 -181 21 -401 52 -645 46 -992 -25 -66 -14 -100
-17 -113 -10 -10 5 -74 53 -142 107 -201 158 -600 455 -644 480 -53 30 -118
37 -167 19z m178 -251 c60 -37 424 -338 575 -474 256 -232 318 -280 341 -265
17 10 3 61 -31 110 l-30 45 23 9 c37 16 247 58 349 71 131 15 566 6 713 -15
61 -9 159 -29 218 -43 l108 -26 47 45 c56 53 146 129 222 187 308 235 518 384
532 375 13 -8 9 -45 -17 -161 -14 -61 -47 -231 -74 -379 -63 -338 -62 -333
-73 -340 -5 -3 -25 8 -44 26 -69 61 -147 99 -160 79 -14 -23 20 -66 185 -234
236 -242 378 -435 488 -665 132 -278 162 -411 170 -755 4 -188 3 -233 -8 -242
-8 -6 -106 -21 -218 -33 -112 -12 -210 -24 -218 -27 -8 -3 -13 -16 -11 -31 3
-25 6 -26 58 -24 30 2 125 9 210 17 85 8 158 11 163 6 4 -4 4 -30 0 -57 l-8
-49 -197 -5 c-202 -5 -223 -10 -216 -46 3 -18 16 -19 185 -19 108 0 186 -4
192 -10 7 -7 7 -22 2 -40 -8 -30 -9 -30 -72 -28 -35 2 -106 11 -157 21 -109
21 -158 18 -173 -10 -7 -13 -7 -24 -1 -30 5 -5 82 -22 171 -37 89 -15 166 -32
172 -38 9 -9 2 -28 -25 -75 -81 -138 -190 -263 -348 -399 -65 -55 -118 -107
-118 -115 0 -8 21 -58 46 -111 111 -236 230 -567 289 -803 175 -703 147 -1340
-90 -2045 -157 -467 -306 -732 -658 -1172 l-50 -63 -137 0 c-75 0 -139 3 -143
6 -3 3 3 29 15 58 39 97 110 311 124 376 51 224 60 323 67 741 3 163 -11 395
-27 439 -2 8 -7 34 -10 56 -16 130 -88 353 -169 527 -48 101 -89 157 -117 157
-34 0 -35 -37 0 -145 25 -78 66 -256 75 -320 7 -58 9 -70 26 -190 23 -158 16
-684 -12 -925 -21 -185 -79 -425 -151 -630 -57 -163 -44 -150 -147 -150 -48 0
-90 2 -93 5 -2 3 4 51 15 107 27 148 26 419 -2 583 -24 137 -58 263 -101 371
-46 115 -115 254 -152 306 -18 25 -60 83 -92 129 -133 186 -362 390 -556 496
-103 57 -265 121 -375 150 -99 25 -126 28 -275 28 -142 0 -178 -3 -255 -24
-148 -39 -285 -110 -285 -148 0 -11 8 -14 33 -10 254 37 291 39 406 28 380
-39 681 -172 938 -415 272 -258 425 -557 498 -976 29 -162 18 -547 -16 -613
-9 -16 -79 -17 -1244 -17 l-1234 0 -57 73 c-32 39 -78 95 -102 122 -160 180
-365 606 -456 948 -29 108 -89 420 -108 557 -17 128 -17 708 0 850 59 488 180
960 329 1290 16 36 38 85 49 110 77 179 267 498 410 688 l62 83 6 92 c3 51 8
175 11 277 5 176 12 259 36 450 13 101 86 399 128 526 28 86 148 396 177 459
32 71 81 246 179 640 109 437 181 701 198 723 10 13 38 8 72 -13z m4520 -6740
c82 -21 148 -68 196 -139 126 -187 85 -436 -105 -634 -130 -137 -289 -231
-526 -314 l-125 -43 -593 -3 c-422 -2 -593 1 -590 8 2 6 36 51 77 99 l73 88
158 6 c278 12 495 61 707 162 117 55 188 103 252 168 75 75 102 137 113 255
13 136 39 211 96 273 35 37 62 56 102 69 67 24 90 24 165 5z"/>
<path d="M3975 10340 c-9 -28 -28 -108 -42 -178 -26 -125 -26 -136 -30 -667
l-4 -540 28 25 c15 13 112 108 216 210 161 159 187 189 187 215 0 29 -11 75
-79 330 -41 154 -120 388 -167 496 -35 79 -79 159 -88 159 -3 0 -12 -23 -21
-50z"/>
<path d="M5364 8746 c-109 -27 -207 -105 -256 -204 -30 -61 -33 -74 -33 -162
0 -91 2 -100 38 -173 101 -205 305 -315 565 -305 141 5 181 24 274 133 81 94
81 89 21 267 -46 139 -92 217 -178 303 -132 132 -276 179 -431 141z m342 -201
c66 -71 71 -177 10 -232 -43 -40 -55 -41 -96 -7 -43 36 -60 74 -60 133 0 130
73 183 146 106z"/>
<path d="M6985 8746 c-92 -29 -165 -93 -204 -180 -64 -140 -81 -389 -34 -486
27 -54 95 -138 132 -162 33 -22 94 -23 175 -2 184 48 291 163 318 343 29 198
-97 439 -254 486 -61 18 -80 18 -133 1z m9 -195 c49 -41 78 -187 46 -226 -35
-42 -95 -34 -130 16 -32 44 -45 137 -26 183 23 54 65 65 110 27z"/>
<path d="M6390 7871 c-62 -9 -73 -18 -65 -50 9 -37 21 -49 96 -97 37 -23 70
-48 74 -54 4 -6 2 -31 -5 -54 -9 -34 -9 -50 3 -83 11 -32 12 -55 4 -98 -9 -52
-13 -59 -54 -85 -59 -38 -226 -91 -295 -93 -43 -2 -68 4 -116 27 -34 16 -64
27 -68 24 -10 -11 25 -66 58 -90 25 -17 50 -24 104 -26 87 -5 171 19 313 89
l96 47 38 -35 c90 -81 218 -108 288 -60 30 20 63 66 55 75 -2 2 -21 -6 -42
-17 -52 -28 -81 -26 -174 10 -84 32 -130 72 -130 112 0 12 7 49 15 82 8 33 14
85 15 116 0 63 8 76 70 111 25 14 53 35 63 46 21 23 26 77 8 95 -14 14 -276
20 -351 8z"/>
<path d="M4789 7759 c-134 -8 -169 -18 -169 -48 0 -40 21 -44 163 -31 163 15
585 18 765 6 129 -8 132 -8 132 12 0 25 -9 27 -125 41 -234 29 -512 36 -766
20z"/>
<path d="M5045 7540 c-313 -24 -630 -73 -795 -123 -42 -12 -45 -16 -43 -46 0
-18 3 -35 6 -37 3 -3 32 2 65 11 301 78 568 114 1002 135 265 14 284 17 245
50 -19 16 -322 22 -480 10z"/>
<path d="M5470 7451 c-179 -42 -371 -108 -660 -226 -134 -55 -154 -70 -145
-108 10 -38 46 -35 142 9 176 81 507 203 687 253 60 17 113 34 119 40 5 5 5
17 -2 30 -14 25 -38 26 -141 2z"/>
<path d="M220 3904 c-6 -16 -10 -620 -10 -1654 l0 -1629 22 -16 c20 -13 73
-15 415 -15 391 1 393 1 408 23 13 19 15 212 15 1654 0 1470 -2 1633 -16 1647
-13 14 -66 16 -420 16 l-404 0 -10 -26z"/>
<path d="M10276 3908 c-14 -20 -16 -196 -16 -1641 0 -1626 1 -1647 33 -1669
17 -11 771 -10 800 1 l27 11 0 1648 c0 1268 -3 1651 -12 1660 -9 9 -115 12
-414 12 l-403 0 -15 -22z"/>
</g>
</svg>
